<svg xmlns="http://www.w3.org/2000/svg" xml:space="preserve" style="enable-background:new 0 0 512 512" viewBox="0 0 512 512"><title>Houston Astros cap logo</title><path d="M 512,0 V 512 H 0 V 0 Z" fill="#002d62" /><g><path fill="#eb6e1f" d="M 159.18455,216.65886 128.67246,205.72809 H 32.000003 l 127.184547,92.4134 m 80.13908,-131.13651 v 38.72119 l -30.53703,10.93269 v 46.88039 h 94.39034 V 216.65886 L 272.6399,205.72809 v -38.72311 h 23.65613 L 255.98177,42.950918 215.69438,167.00498 m 167.60629,38.72311 -30.51017,10.93077 v 81.48263 L 480,205.72809 m -320.81545,154.34543 -7.04406,2.55275 z m 153.53545,49.60013 81.7168,59.37543 -19.30877,-59.37543 m -238.29828,0 -19.27998,59.37543 81.7072,-59.37543 m 73.38101,-38.6425 30.53704,-10.95955 V 313.13938 H 208.7866 v 46.93414 l 30.53703,10.95955 v 9.55842 l 16.66006,-12.1438 16.65621,12.14188" /><path fill="#f4911e" d="m 383.30067,205.72809 -30.51017,10.93077 v 1.09787 h 90.1332 L 480,205.72809 M 239.32363,167.00498 v 38.72119 l -30.53703,10.93269 v 46.88039 h 47.19325 V 42.950918 L 215.69246,167.00498 m -6.90778,146.1344 v 29.63494 l 21.42007,-29.63494 m -71.0202,46.93414 -7.04406,2.55275 z m -22.3548,49.60013 -19.27998,59.37543 42.91115,-59.37543 M 159.18455,216.65886 128.67246,205.72809 H 32.000003 l 127.184547,92.4134" /><path fill="#eb6e1f" d="M 159.18455,283.2319 69.076301,217.75673 32.000003,205.72809 159.18455,298.14149" /><path fill="#ffffff" d="M 383.30067,205.72809 V 167.00498 H 272.63798 v 38.72311 l 30.53704,10.93077 v 46.88039 H 208.7866 v -46.88039 l 30.53703,-10.93077 V 167.00498 H 128.67246 v 38.72311 l 30.51401,10.93077 v 143.41466 l -30.51209,10.95955 v 38.64058 h 110.65117 v -38.6425 L 208.78852,360.0716 v -46.93222 h 94.39034 v 46.93414 l -30.53704,10.95955 v 38.64058 h 110.66076 v -38.6425 L 352.79242,360.0716 V 216.65694" /><path fill="#e7e9ea" d="m 373.45434,176.89161 v 21.88648 l -30.5236,10.93268 v 157.28396 l 9.85976,-6.92313 V 216.68765 l 30.51017,-10.95956 v -38.72311 m -9.84633,232.80891 h -90.95852 l -9.85784,9.85976 h 110.66269 v -38.6425 l -9.84633,6.9193 M 208.78468,313.13938 h 94.39418 l 9.84248,-9.83481 H 198.93835 v 63.69016 l 9.84633,-6.92313 m 20.67919,39.74229 H 138.49 l -9.81754,9.85976 h 110.65117 v -38.6425 l -9.85976,6.9193 M 169.04239,209.71077 138.49,198.77809 l -9.81754,6.94808 30.51209,10.93269 m 153.83679,-6.94809 -30.52744,-10.93268 -9.85784,6.94808 30.53704,10.93269 m -94.38842,0 30.53703,-10.93077 v -38.69432 l -9.85784,9.85784 v 21.88648 l -30.52552,10.93268 v 63.71319 l 9.84633,-9.88471" /></g></svg>